#!OML:ASF E:\motion texture\Top Level 1\Subject 1\Session 1\male.ASF
:FULLY-SPECIFIED
:DEGREES
362
root 6.94983 17.9953 4.68104 661.371 -86.1413 -663.441
lowerback 4.40663 -4.88447 -5.46764
upperback -1.57019 -6.78684 1.81871
thorax -3.23843 -3.24793 5.37299
lowerneck -21.1787 -1.01723 -4.24116
upperneck 17.7123 -1.27481 5.18967
head 9.1118 -0.316162 2.30886
rclavicle 3.68e-014 -1.03368e-014
rhumerus -62.4455 -4.27006 -67.2311
rradius 34.1661
rwrist 5.56552
rhand -7.96037 -7.56873
rfingers 7.12502
rthumb 17.947 -36.7607
lclavicle 3.68e-014 -1.03368e-014
lhumerus 7.97248 -5.99935 80.3079
lradius 49.2877
lwrist -1.39984
lhand -11.2369 10.0884
lfingers 7.12502
lthumb 14.7923 39.5405
rfemur -78.2379 -5.9718 13.7499
rtibia 81.0802
rfoot 379.771 -9.3887
rtoes 21.4412
lfemur 5.87382 -6.04693 -27.5718
ltibia 20.2805
lfoot 707.566 -4.20227
ltoes -3.9418
363
root 6.79977 17.9977 4.66748 661.651 -86.0746 -663.643
lowerback 4.42154 -4.93165 -5.53221
upperback -1.54319 -6.8539 1.81401
thorax -3.20333 -3.28201 5.40606
lowerneck -21.2467 -1.00603 -4.22754
upperneck 17.6453 -1.25636 5.18628
head 9.09949 -0.305559 2.30747
rclavicle 4.65405e-014 -1.19271e-014
rhumerus -62.5794 -4.11621 -67.2892
rradius 33.9392
rwrist 5.62151
rhand -7.85978 -7.48569
rfingers 7.12502
rthumb 18.0438 -36.6687
lclavicle 4.65405e-014 -1.19271e-014
lhumerus 8.66281 -6.00621 80.0222
lradius 49.4955
lwrist -1.48423
lhand -11.1473 9.99145
lfingers 7.12502
lthumb 14.8786 39.4372
rfemur -78.418 -5.79903 13.6144
rtibia 79.5122
rfoot 380.221 -9.84437
rtoes 21.28
lfemur 6.25332 -6.23215 -27.6179
ltibia 20.3528
lfoot 707.646 -4.37549
ltoes -4.78789
364
root 6.64886 17.9984 4.65398 661.998 -86.0064 -663.91
lowerback 4.42622 -4.97729 -5.5939
upperback -1.51411 -6.91811 1.80953
thorax -3.16085 -3.31513 5.43635
lowerneck -21.2934 -0.99652 -4.21513
upperneck 17.561 -1.23983 5.18214
head 9.07761 -0.296306 2.30541
rclavicle 6.38596e-014 7.15625e-015
rhumerus -62.6712 -3.98589 -67.353
rradius 33.7577
rwrist 5.65076
rhand -7.7328 -7.42467
rfingers 7.12502
rthumb 18.1659 -36.5964
lclavicle 6.38596e-014 7.15625e-015
lhumerus 9.27487 -6.00303 79.7727
lradius 49.7065
lwrist -1.57926
lhand -11.0948 9.91816
lfingers 7.12502
lthumb 14.9292 39.3601
rfemur -78.4451 -5.635 13.4758
rtibia 77.9523
rfoot 380.652 -9.49041
rtoes 21.1078
lfemur 6.62701 -6.42245 -27.6617
ltibia 20.4355
lfoot 707.732 -4.56197
ltoes -5.6991
365
root 6.49728 17.9973 4.64033 662.379 -85.9466 -664.203
lowerback 4.42111 -5.01792 -5.64505
upperback -1.48831 -6.97451 1.8068
thorax -3.11817 -3.34454 5.46144
lowerneck -21.3242 -0.989096 -4.19911
upperneck 17.4672 -1.22674 5.17401
head 9.04973 -0.289095 2.30068
rclavicle -1.06101e-014 -7.95139e-015
rhumerus -62.7266 -3.8829 -67.4178
rradius 33.6186
rwrist 5.67062
rhand -7.61853 -7.35908
rfingers 7.12502
rthumb 18.2759 -36.5205
lclavicle -1.06101e-014 -7.95139e-015
lhumerus 9.80556 -5.99806 79.56
lradius 49.9201
lwrist -1.6975
lhand -11.0841 9.87371
lfingers 7.12502
lthumb 14.9395 39.3149
rfemur -78.333 -5.46644 13.3423
rtibia 76.4053
rfoot 381.071 -9.25883
rtoes 20.9362
lfemur 6.98731 -6.60609 -27.6895
ltibia 20.5265
lfoot 707.825 -4.7608
ltoes -6.63032
366
root 6.34429 17.9945 4.6267 662.739 -85.8861 -664.464
lowerback 4.40505 -5.05464 -5.69356
upperback -1.47235 -7.02514 1.80387
thorax -3.08061 -3.37074 5.48407
lowerneck -21.3279 -0.983129 -4.18529
upperneck 17.3686 -1.21575 5.1648
head 9.01562 -0.283572 2.29544
rclavicle -1.12015e-013 3.65764e-014
rhumerus -62.7563 -3.79294 -67.4871
rradius 33.5232
rwrist 5.67793
rhand -7.48926 -7.32443
rfingers 7.12502
rthumb 18.4002 -36.4742
lclavicle -1.12015e-013 3.65764e-014
lhumerus 10.2438 -5.99263 79.3876
lradius 50.1317
lwrist -1.84836
lhand -11.1117 9.85559
lfingers 7.12502
lthumb 14.9129 39.2988
rfemur -78.0866 -5.29814 13.2047
rtibia 74.8762
rfoot 381.492 -9.0916
rtoes 20.7598
lfemur 7.34047 -6.77314 -27.7139
ltibia 20.6205
lfoot 707.925 -4.97528
ltoes -7.59281
367
root 6.1896 17.9903 4.61299 663.057 -85.8275 -664.666
lowerback 4.36212 -5.08706 -5.73445
upperback -1.46481 -7.0683 1.79942
thorax -3.03872 -3.3934 5.49824
lowerneck -21.3197 -0.979172 -4.17245
upperneck 17.274 -1.20805 5.15589
head 8.981 -0.279846 2.29
rclavicle -1.03964e-013 8.74653e-015
rhumerus -62.7534 -3.71696 -67.5692
rradius 33.4674
rwrist 5.66954
rhand -7.37862 -7.31892
rfingers 7.12502
rthumb 18.5066 -36.4586
lclavicle -1.03964e-013 8.74653e-015
lhumerus 10.6016 -5.99351 79.2494
lradius 50.3317
lwrist -2.03059
lhand -11.1938 9.84593
lfingers 7.12502
lthumb 14.8338 39.295
rfemur -77.7234 -5.12476 13.0679
rtibia 73.3707
rfoot 381.924 -8.95524
rtoes 20.5682
lfemur 7.67899 -6.91712 -27.7293
ltibia 20.7119
lfoot 708.032 -5.20366
ltoes -8.54304
368
root 6.03335 17.9848 4.59909 663.339 -85.769 -664.804
lowerback 4.29411 -5.11487 -5.77096
upperback -1.47758 -7.1041 1.79465
thorax -3.00544 -3.4117 5.50798
lowerneck -21.2842 -0.976089 -4.15902
upperneck 17.1878 -1.20255 5.14325
head 8.94459 -0.277996 2.28284
rclavicle -2.08724e-015 8.74653e-015
rhumerus -62.7369 -3.64444 -67.6623
rradius 33.4545
rwrist 5.63196
rhand -7.29014 -7.34401
rfingers 7.12502
rthumb 18.5918 -36.4756
lclavicle -2.08724e-015 8.74653e-015
lhumerus 10.8722 -6.00747 79.1492
lradius 50.5143
lwrist -2.243
lhand -11.2858 9.86513
lfingers 7.12502
lthumb 14.7451 39.3207
rfemur -77.2576 -4.94944 12.9324
rtibia 71.8922
rfoot 382.374 -8.84398
rtoes 20.4062
lfemur 7.9921 -7.03881 -27.7353
ltibia 20.8027
lfoot 708.148 -5.44633
ltoes -9.48033
369
root 5.87543 17.9782 4.58487 663.649 -85.7161 -664.935
lowerback 4.18874 -5.13873 -5.79631
upperback -1.50863 -7.13221 1.79271
thorax -2.97218 -3.42599 5.51133
lowerneck -21.2375 -0.974965 -4.1505
upperneck 17.1159 -1.19971 5.13195
head 8.91141 -0.277799 2.27673
rclavicle -1.83627e-014 2.46493e-014
rhumerus -62.6994 -3.5731 -67.7734
rradius 33.4827
rwrist 5.55382
rhand -7.23454 -7.37525
rfingers 7.12502
rthumb 18.6452 -36.5017
lclavicle -1.83627e-014 2.46493e-014
lhumerus 11.07 -6.03819 79.084
lradius 50.6684
lwrist -2.47697
lhand -11.3951 9.90625
lfingers 7.12502
lthumb 14.6399 39.3695
rfemur -76.7032 -4.76924 12.8072
rtibia 70.4469
rfoot 382.831 -8.76002
rtoes 20.3097
lfemur 8.27153 -7.13819 -27.7199
ltibia 20.8895
lfoot 708.273 -5.70343
ltoes -10.4007
370
root 5.71622 17.9705 4.57021 663.908 -85.675 -664.969
lowerback 4.04603 -5.15574 -5.81085
upperback -1.56409 -7.14894 1.79574
thorax -2.94553 -3.43403 5.51104
lowerneck -21.186 -0.974934 -4.14474
upperneck 17.0663 -1.19867 5.12017
head 8.88515 -0.278839 2.27093
rclavicle -1.25731e-014 7.95139e-016
rhumerus -62.6438 -3.50288 -67.8983
rradius 33.5493
rwrist 5.43359
rhand -7.20574 -7.42515
rfingers 7.12502
rthumb 18.6729 -36.5489
lclavicle -1.25731e-014 7.95139e-016
lhumerus 11.1909 -6.09445 79.0488
lradius 50.7963
lwrist -2.71629
lhand -11.505 9.96014
lfingers 7.12502
lthumb 14.534 39.431
rfemur -76.079 -4.57372 12.6961
rtibia 69.0385
rfoot 383.295 -8.71415
rtoes 20.2905
lfemur 8.50655 -7.21528 -27.6782
ltibia 20.9688
lfoot 708.407 -5.96843
ltoes -11.2944
371
root 5.55533 17.9618 4.55534 664.14 -85.6331 -664.939
lowerback 3.86358 -5.16768 -5.82356
upperback -1.63566 -7.15692 1.8013
thorax -2.91443 -3.43761 5.50878
lowerneck -21.1309 -0.977696 -4.14209
upperneck 17.0307 -1.20085 5.1063
head 8.86329 -0.281924 2.26465
rclavicle -6.89286e-014 3.81667e-014
rhumerus -62.5693 -3.43472 -68.0365
rradius 33.6626
rwrist 5.26322
rhand -7.18594 -7.48743
rfingers 7.12502
rthumb 18.692 -36.6094
lclavicle -6.89286e-014 3.81667e-014
lhumerus 11.2465 -6.18051 79.0427
lradius 50.895
lwrist -2.95257
lhand -11.6124 10.0312
lfingers 7.12502
lthumb 14.4305 39.5095
rfemur -75.3776 -4.37588 12.5893
rtibia 67.6644
rfoot 383.759 -8.71263
rtoes 20.337
lfemur 8.7139 -7.28133 -27.6275
ltibia 21.0297
lfoot 708.553 -6.24057
ltoes -12.1399
372
root 5.3924 17.9522 4.54024 664.419 -85.5822 -664.927
lowerback 3.64232 -5.17713 -5.84018
upperback -1.71618 -7.15979 1.80895
thorax -2.8708 -3.43894 5.507
lowerneck -21.0825 -0.983206 -4.14502
upperneck 17.005 -1.20545 5.09337
head 8.84614 -0.28633 2.25947
rclavicle -1.00138e-013 -2.94201e-014
rhumerus -62.4693 -3.3725 -68.1843
rradius 33.8221
rwrist 5.04579
rhand -7.16379 -7.55194
rfingers 7.12502
rthumb 18.7133 -36.6718
lclavicle -1.00138e-013 -2.94201e-014
lhumerus 11.2476 -6.30045 79.0633
lradius 50.9662
lwrist -3.17624
lhand -11.7066 10.1276
lfingers 7.12502
lthumb 14.3397 39.6123
rfemur -74.5957 -4.18801 12.4851
rtibia 66.3292
rfoot 384.224 -8.76648
rtoes 20.4645
lfemur 8.90857 -7.34358 -27.5737
ltibia 21.0641
lfoot 708.711 -6.52365
ltoes -12.9297
